<?xml version="1.0" standalone="no"?>
<!DOCTYPE svg PUBLIC "-//W3C//DTD SVG 20010904//EN"
 "http://www.w3.org/TR/2001/REC-SVG-20010904/DTD/svg10.dtd">
<svg version="1.0" xmlns="http://www.w3.org/2000/svg"
 width="212.000000pt" height="194.000000pt" viewBox="0 0 212.000000 194.000000"
 preserveAspectRatio="xMidYMid meet">

<g transform="translate(0.000000,194.000000) scale(0.100000,-0.100000)"
fill="#000000" stroke="none">
<path d="M1074 1819 c-4 -6 -12 -35 -18 -63 -10 -45 -15 -51 -38 -54 -23 -3
-30 2 -43 35 -27 64 -41 74 -83 59 -37 -13 -37 -13 -37 -72 0 -96 -26 -110
-82 -44 -37 43 -48 46 -87 29 -34 -16 -37 -28 -16 -86 30 -85 -1 -106 -79 -53
l-45 30 -28 -27 c-35 -33 -35 -53 -3 -91 48 -57 22 -107 -39 -78 -56 27 -84
21 -104 -20 l-17 -36 43 -39 c32 -28 43 -44 40 -61 -3 -20 -9 -23 -53 -24 -82
-1 -83 -2 -94 -41 -10 -34 -8 -40 12 -55 12 -10 36 -22 53 -28 55 -19 47 -80
-10 -80 -13 0 -37 -5 -55 -11 -30 -11 -32 -14 -29 -52 3 -44 10 -48 90 -62 63
-10 62 -66 -2 -80 -42 -9 -63 -38 -55 -74 10 -45 26 -54 89 -46 54 7 55 6 62
-19 5 -23 0 -32 -35 -62 -45 -39 -49 -53 -25 -89 19 -29 48 -32 101 -10 35 15
38 14 56 -4 20 -19 20 -20 -12 -62 -37 -51 -39 -68 -8 -97 31 -29 45 -28 95 9
34 25 45 28 62 19 24 -13 25 -26 5 -73 -23 -54 -19 -70 21 -92 l36 -19 44 47
c47 51 55 54 77 33 10 -11 13 -29 9 -67 -6 -59 10 -79 60 -79 23 0 32 8 53 50
14 28 32 53 41 57 20 7 44 -15 44 -42 0 -12 5 -36 11 -54 10 -28 15 -31 55
-31 41 0 43 2 53 38 6 20 11 44 11 53 0 22 25 42 46 37 10 -2 22 -17 28 -33 6
-17 19 -41 28 -55 16 -22 20 -23 59 -11 l42 13 -6 59 c-5 52 -3 61 16 74 20
14 24 12 65 -30 23 -25 47 -45 53 -45 8 0 44 20 68 37 2 2 -4 30 -14 63 -17
56 -17 62 -2 77 14 15 20 13 63 -16 57 -37 64 -38 92 -8 29 30 28 59 -3 95
-28 33 -33 70 -11 78 8 3 35 -2 60 -10 63 -22 69 -21 89 14 23 38 16 61 -28
95 -64 48 -42 86 44 78 l57 -5 11 37 c16 50 10 60 -48 85 -44 19 -50 24 -47
48 3 23 9 28 45 34 66 11 83 24 83 62 0 42 -18 57 -75 64 -30 3 -49 11 -55 23
-14 25 -2 49 29 55 15 3 38 14 51 24 22 16 23 22 14 57 l-9 38 -57 1 c-31 1
-63 4 -72 7 -22 9 -21 54 2 61 11 4 29 17 42 31 24 26 23 53 -4 90 -14 20 -15
20 -69 1 -89 -30 -112 -3 -62 71 31 45 29 69 -7 96 l-28 21 -45 -32 c-51 -36
-67 -39 -85 -17 -10 12 -9 23 4 55 23 59 20 77 -15 96 -38 19 -70 7 -97 -38
-17 -29 -55 -38 -68 -16 -4 6 -6 37 -5 69 l2 57 -36 12 c-44 15 -60 4 -86 -58
-17 -38 -22 -43 -46 -40 -21 2 -29 9 -31 28 -1 14 -7 42 -13 63 -9 35 -12 37
-49 37 -21 0 -42 -5 -46 -11z m227 -174 c250 -65 451 -274 509 -530 18 -80 14
-239 -9 -326 -65 -254 -282 -460 -536 -510 -78 -16 -234 -12 -306 6 -202 51
-368 186 -459 370 -55 110 -73 190 -73 310 0 298 168 543 447 655 127 51 289
60 427 25z"/>
<path d="M1047 1613 c-14 -4 -17 -11 -13 -26 3 -12 6 -28 6 -34 0 -7 7 -13 15
-13 18 0 20 16 3 23 -10 4 -10 8 1 15 11 8 10 11 -5 15 -16 4 -17 5 -1 6 9 0
17 6 17 11 0 6 -1 9 -2 9 -2 -1 -11 -3 -21 -6z"/>
<path d="M1132 1608 c-18 -18 -14 -46 7 -58 24 -12 48 -4 54 19 10 40 -33 67
-61 39z m43 -29 c0 -28 -23 -32 -39 -6 -8 14 -8 20 4 27 22 14 35 6 35 -21z"/>
<path d="M1215 1579 c-4 -17 -4 -33 -1 -36 3 -4 6 1 6 10 0 10 8 17 18 17 14
0 15 2 2 10 -13 9 -13 11 0 20 13 8 13 10 -2 10 -10 0 -19 -11 -23 -31z"/>
<path d="M945 1580 c-14 -43 44 -69 65 -30 9 17 8 20 -12 19 -13 0 -17 -3 -10
-6 6 -2 12 -9 12 -14 0 -12 -40 -12 -41 1 -5 29 -2 35 21 41 l25 7 -27 1 c-19
1 -29 -5 -33 -19z"/>
<path d="M1295 1559 c-5 -22 -3 -34 6 -40 7 -4 16 -5 19 -2 3 3 -1 8 -7 10 -7
3 -13 9 -13 15 0 6 7 8 15 4 8 -3 15 -1 15 4 0 6 -5 10 -11 10 -5 0 -7 5 -4
10 4 6 11 7 17 4 7 -4 8 -2 4 4 -13 22 -34 12 -41 -19z"/>
<path d="M886 1571 c-4 -5 -2 -21 4 -35 10 -27 34 -34 46 -14 5 8 2 9 -10 5
-14 -6 -16 -3 -11 14 5 16 4 19 -6 14 -9 -6 -11 -3 -6 8 7 18 -8 24 -17 8z"/>
<path d="M1351 1544 c-15 -34 -14 -42 4 -18 14 19 14 19 15 -3 0 -35 18 -36
35 -3 17 33 10 41 -11 13 -12 -17 -13 -16 -14 4 0 32 -15 36 -29 7z"/>
<path d="M845 1520 c16 -31 29 -37 40 -20 3 6 -1 10 -9 10 -8 0 -18 9 -21 20
-3 11 -11 20 -16 20 -5 0 -3 -13 6 -30z"/>
<path d="M790 1528 c0 -4 5 -19 12 -33 11 -25 38 -35 38 -14 0 5 -4 7 -10 4
-5 -3 -10 -2 -10 2 0 11 -29 51 -30 41z"/>
<path d="M1437 1519 c-27 -16 -22 -57 8 -65 14 -4 28 -4 31 -1 8 8 -5 27 -17
27 -6 0 -7 -4 -4 -10 3 -5 1 -10 -5 -10 -16 0 -24 30 -11 43 9 9 16 9 31 -1
11 -7 20 -8 20 -2 0 17 -34 29 -53 19z"/>
<path d="M1019 1507 c-143 -27 -300 -136 -372 -260 -90 -153 -101 -359 -27
-512 l19 -40 98 3 c81 3 101 7 116 23 17 19 16 19 -110 19 -89 0 -123 3 -113
10 8 6 49 10 90 9 147 -2 167 0 175 19 5 14 4 15 -6 5 -7 -7 -30 -13 -51 -13
l-38 0 0 50 0 50 45 -4 c40 -3 45 -1 45 18 1 19 2 18 16 -6 8 -16 19 -28 24
-28 11 0 37 25 43 42 2 7 7 10 10 7 4 -3 -5 -22 -18 -42 -18 -25 -30 -35 -43
-31 -13 5 -14 4 -3 -4 11 -8 8 -18 -17 -53 -64 -91 -58 -87 -156 -88 -49 0
-90 -2 -92 -4 -2 -1 17 -28 41 -59 42 -54 146 -138 169 -138 6 1 -6 11 -26 23
-21 12 -38 24 -38 27 0 6 637 3 647 -3 9 -5 63 37 63 49 0 4 -8 0 -18 -9 -17
-15 -58 -17 -371 -18 -345 -1 -353 0 -372 20 -20 21 -20 21 1 21 12 0 18 -4
15 -10 -15 -25 15 -7 37 23 l25 32 364 -3 c321 -3 362 -5 345 -17 -16 -12 -83
-15 -375 -17 l-356 -3 360 -5 360 -5 23 25 c62 70 116 200 127 310 11 109 -24
251 -83 339 -43 64 -111 131 -127 124 -8 -3 -12 -10 -8 -16 3 -6 1 -7 -6 -3
-9 6 -9 11 0 22 14 17 0 31 -71 68 -101 53 -246 74 -361 53z m121 -107 c9 -18
8 -20 -15 -20 -14 0 -25 6 -26 13 0 8 -2 8 -6 -2 -5 -11 -7 -11 -14 0 -6 10
-9 11 -9 2 0 -8 -13 -13 -30 -13 -23 0 -30 5 -30 19 0 15 9 18 59 20 51 1 62
-1 71 -19z m62 1 c8 20 82 18 86 -2 2 -12 -10 -15 -57 -17 -51 -1 -59 1 -56
16 6 28 6 28 14 8 6 -15 9 -16 13 -5z m201 -76 c-3 -9 -8 -14 -10 -11 -3 3 -2
9 2 15 9 16 15 13 8 -4z m27 -9 c0 -2 -8 -10 -17 -17 -16 -13 -17 -12 -4 4 13
16 21 21 21 13z m-77 -107 c-10 -17 -26 -38 -37 -47 -10 -9 -4 4 15 31 37 53
49 62 22 16z m-33 17 c0 -2 -8 -10 -17 -17 -16 -13 -17 -12 -4 4 13 16 21 21
21 13z m-135 -76 c3 -5 1 -10 -4 -10 -6 0 -11 5 -11 10 0 6 2 10 4 10 3 0 8
-4 11 -10z m45 -30 c-12 -16 -24 -30 -26 -30 -7 0 5 20 24 43 24 27 25 20 2
-13z m-70 11 c0 -5 -9 -19 -20 -32 l-20 -24 17 32 c19 34 23 39 23 24z m18
-68 c-13 -12 -15 -12 -15 1 0 8 5 13 10 9 5 -3 6 4 3 18 -6 21 -6 22 5 5 9
-14 8 -21 -3 -33z m93 29 c-5 -10 -18 -25 -28 -33 -12 -10 -11 -5 6 19 24 35
38 43 22 14z m-151 -26 c0 -2 -8 -10 -17 -17 -16 -13 -17 -12 -4 4 13 16 21
21 21 13z m-46 -61 c-9 -14 -18 -25 -21 -25 -5 0 5 18 20 38 17 22 18 13 1
-13z m136 1 c0 -2 -8 -10 -17 -17 -16 -13 -17 -12 -4 4 13 16 21 21 21 13z
m-323 -48 c-3 -8 -6 -5 -6 6 -1 11 2 17 5 13 3 -3 4 -12 1 -19z m30 0 c-3 -8
-6 -5 -6 6 -1 11 2 17 5 13 3 -3 4 -12 1 -19z m76 2 c3 -11 1 -23 -4 -26 -5
-3 -9 6 -9 20 0 31 6 34 13 6z m-146 -22 c-3 -7 -5 -2 -5 12 0 14 2 19 5 13 2
-7 2 -19 0 -25z m179 4 c-17 -16 -18 -16 -5 5 7 12 15 20 18 17 3 -2 -3 -12
-13 -22z m144 7 c-7 -11 -14 -18 -17 -15 -3 3 0 12 7 21 18 21 23 19 10 -6z
m315 11 c3 -5 1 -10 -4 -10 -6 0 -11 5 -11 10 0 6 2 10 4 10 3 0 8 -4 11 -10z
m-808 -22 c-3 -8 -6 -5 -6 6 -1 11 2 17 5 13 3 -3 4 -12 1 -19z m30 0 c-3 -8
-6 -5 -6 6 -1 11 2 17 5 13 3 -3 4 -12 1 -19z m950 0 c-3 -8 -6 -5 -6 6 -1 11
2 17 5 13 3 -3 4 -12 1 -19z m-1050 -4 c-3 -3 -12 -4 -19 -1 -8 3 -5 6 6 6 11
1 17 -2 13 -5z m24 -48 c5 3 9 0 9 -6 0 -15 92 -10 102 4 4 6 8 1 8 -11 0 -32
18 -28 23 5 3 20 5 17 7 -15 3 -47 3 -68 1 -84 -1 -6 -31 -9 -80 -8 -71 2 -80
4 -89 24 -6 13 -8 33 -5 46 4 15 3 20 -5 15 -7 -4 -12 -2 -12 4 0 15 24 40 28
29 2 -5 8 -7 13 -3z m509 5 c0 -5 -4 -11 -8 -13 -10 -4 -52 -64 -52 -74 0 -5
7 2 16 14 8 12 24 22 35 22 11 0 19 7 19 16 0 17 -3 17 154 -2 35 -4 51 -2 57
7 7 11 9 10 9 -3 0 -34 33 -14 43 27 2 11 5 -10 6 -47 l1 -68 -195 0 c-107 0
-195 2 -195 4 0 3 6 11 13 18 7 7 28 34 47 61 32 44 50 58 50 38z m-200 -11
c0 -5 -2 -10 -4 -10 -3 0 -8 5 -11 10 -3 6 -1 10 4 10 6 0 11 -4 11 -10z m666
-35 c-6 -31 -4 -35 14 -35 11 0 20 -3 20 -7 -1 -23 -24 -30 -106 -32 -89 -3
-91 -2 -96 21 -9 53 -2 58 77 58 56 0 74 4 79 15 10 28 18 15 12 -20z m29 8
c-7 -30 -13 -39 -19 -32 -8 8 6 59 16 59 6 0 7 -11 3 -27z m12 -25 c-3 -8 -6
-5 -6 6 -1 11 2 17 5 13 3 -3 4 -12 1 -19z m-640 -28 c-6 -16 -14 -25 -17 -19
-4 5 -15 0 -26 -12 -19 -22 -19 -22 4 -16 20 5 22 2 16 -15 -5 -17 -3 -20 10
-15 9 4 16 2 16 -2 0 -5 -6 -12 -12 -14 -7 -3 123 -6 290 -6 194 -1 302 -5
302 -11 0 -6 -125 -10 -355 -10 -195 0 -355 3 -355 6 0 3 19 26 42 50 24 25
52 57 62 70 27 33 37 30 23 -6z m613 -51 c0 -6 -117 -9 -305 -9 -168 1 -303 5
-300 9 7 12 605 12 605 0z m-925 -29 c-3 -5 -18 -10 -33 -10 -21 0 -24 2 -12
10 20 13 53 13 45 0z m105 0 c0 -5 -21 -10 -46 -10 -27 0 -43 4 -39 10 3 6 24
10 46 10 21 0 39 -4 39 -10z m35 0 c-3 -5 -11 -10 -16 -10 -6 0 -7 5 -4 10 3
6 11 10 16 10 6 0 7 -4 4 -10z m705 1 c0 -8 -83 -11 -260 -11 -143 0 -260 4
-260 8 0 5 117 10 260 11 178 2 260 -1 260 -8z m66 0 c-3 -5 -17 -8 -31 -8
-14 0 -25 3 -25 8 0 5 14 9 31 9 16 0 28 -4 25 -9z m-726 -48 c0 -5 158 -7
350 -6 279 2 348 0 339 -10 -9 -9 -93 -11 -360 -10 -192 2 -349 5 -349 8 0 3
0 10 0 15 0 6 5 10 10 10 6 0 10 -3 10 -7z m-72 -35 c-29 -38 -77 -49 -98 -24
-14 18 -11 19 53 16 20 -1 37 3 37 9 0 6 -22 10 -55 9 -32 -1 -60 3 -67 10 -9
9 6 12 71 12 l84 0 -25 -32z"/>
<path d="M1112 800 c0 -14 2 -19 5 -12 2 6 2 18 0 25 -3 6 -5 1 -5 -13z"/>
<path d="M945 730 c19 -8 17 -11 -14 -14 -8 0 -16 -6 -18 -12 -2 -6 7 -9 25
-6 35 5 43 42 9 41 -21 0 -21 -1 -2 -9z"/>
<path d="M732 1491 c-8 -4 -12 -19 -10 -32 4 -30 46 -39 65 -14 25 35 -18 70
-55 46z m46 -29 c3 -18 -2 -22 -22 -22 -19 0 -26 5 -26 19 0 36 43 38 48 3z"/>
<path d="M1497 1455 c-10 -14 -14 -25 -10 -25 4 0 16 12 26 25 10 14 14 25 10
25 -4 0 -16 -12 -26 -25z"/>
<path d="M1520 1435 c-23 -25 -16 -37 8 -13 9 9 12 5 12 -22 l0 -33 25 23 c30
29 34 51 3 24 l-21 -19 6 33 c8 38 -1 41 -33 7z"/>
<path d="M665 1429 c-21 -23 -12 -51 19 -57 19 -4 46 15 46 31 0 5 -9 2 -19
-7 -11 -10 -25 -15 -30 -11 -15 9 -14 42 2 48 6 2 9 7 6 11 -3 3 -14 -3 -24
-15z"/>
<path d="M1582 1381 c-21 -18 -22 -51 -1 -51 4 0 5 8 2 17 -5 13 -2 15 11 10
14 -6 17 -3 12 9 -5 12 -2 15 10 10 10 -4 14 -1 12 6 -7 19 -21 19 -46 -1z"/>
<path d="M1611 1331 c-13 -10 -21 -23 -17 -30 11 -17 26 -13 19 6 -5 12 -2 15
10 10 12 -4 17 -1 17 10 0 13 2 14 18 2 15 -13 16 -12 3 4 -17 21 -20 21 -50
-2z"/>
<path d="M570 1315 c0 -15 10 -19 45 -15 17 2 18 0 5 -16 -13 -15 -13 -17 0
-12 8 2 16 12 18 21 3 13 -4 17 -28 17 -18 0 -29 4 -25 10 3 6 1 10 -4 10 -6
0 -11 -7 -11 -15z"/>
<path d="M1648 1284 c-30 -16 -38 -30 -12 -20 12 5 14 1 9 -17 -5 -17 -4 -19
4 -7 6 8 16 15 23 15 7 0 14 10 16 23 4 26 -3 27 -40 6z"/>
<path d="M530 1242 c0 -5 7 -12 15 -16 24 -9 17 -24 -12 -28 l-28 -3 32 -18
c39 -21 54 -22 27 -2 -18 14 -18 14 5 15 24 0 24 0 5 22 -19 21 -19 21 4 16
12 -4 22 -2 22 3 0 5 -9 9 -19 9 -11 0 -26 3 -35 6 -9 3 -16 2 -16 -4z"/>
<path d="M1664 1225 c-17 -13 -16 -14 14 -4 33 11 41 19 19 19 -7 0 -22 -7
-33 -15z"/>
<path d="M1674 1194 c-18 -15 -18 -15 4 -9 26 7 28 -2 5 -27 -20 -23 -3 -24
42 -3 l30 14 -29 -6 -28 -6 17 27 c17 25 17 26 -2 26 -11 0 -28 -7 -39 -16z"/>
<path d="M1703 1123 c-12 -4 -19 -63 -9 -63 2 0 11 -3 20 -6 11 -4 16 -1 16
11 0 11 -5 15 -15 11 -10 -4 -15 1 -15 14 0 28 38 26 50 -2 8 -22 9 -22 9 -2
1 34 -24 51 -56 37z"/>
<path d="M487 1107 c-8 -21 1 -27 40 -27 27 0 34 4 31 18 -4 22 -63 30 -71 9z
m63 -7 c0 -5 -4 -10 -10 -10 -5 0 -10 5 -10 10 0 6 5 10 10 10 6 0 10 -4 10
-10z"/>
<path d="M484 955 c-8 -20 4 -35 27 -35 14 0 19 7 19 25 0 18 -5 25 -20 25
-11 0 -23 -7 -26 -15z"/>
<path d="M1728 958 c-8 -21 2 -38 22 -38 19 0 34 25 24 41 -8 13 -41 11 -46
-3z"/>
<path d="M880 812 c0 -4 10 -9 22 -9 18 -2 20 0 8 7 -18 12 -30 13 -30 2z"/>
<path d="M677 544 c-16 -13 -25 -29 -22 -34 10 -16 45 -12 45 5 0 8 5 15 10
15 12 0 14 27 2 33 -4 3 -20 -6 -35 -19z m13 -24 c0 -5 -4 -10 -10 -10 -5 0
-10 5 -10 10 0 6 5 10 10 10 6 0 10 -4 10 -10z"/>
<path d="M1555 560 c-8 -14 3 -30 21 -30 8 0 14 -4 14 -10 0 -5 5 -10 10 -10
6 0 4 13 -5 30 -16 31 -29 37 -40 20z m25 -10 c0 -5 -5 -10 -11 -10 -5 0 -7 5
-4 10 3 6 8 10 11 10 2 0 4 -4 4 -10z"/>
<path d="M725 500 c-17 -11 -24 -20 -17 -20 7 0 16 -10 21 -22 7 -21 9 -19 21
16 6 20 10 39 8 41 -2 2 -17 -5 -33 -15z"/>
<path d="M1405 500 c-16 -11 -25 -20 -20 -20 10 0 64 39 55 40 -3 0 -18 -9
-35 -20z"/>
<path d="M1511 518 c2 -2 18 -14 34 -28 l30 -25 -24 28 c-14 15 -29 27 -34 27
-6 0 -8 -1 -6 -2z"/>
<path d="M1474 487 c-7 -20 13 -57 31 -57 21 0 25 13 12 40 -15 29 -35 37 -43
17z m33 -22 c8 -22 -6 -33 -17 -15 -13 20 -12 30 0 30 6 0 13 -7 17 -15z"/>
<path d="M778 462 c-22 -37 -24 -53 -3 -26 14 18 14 18 15 -11 l1 -30 24 30
c13 16 21 32 18 35 -3 3 -8 -1 -10 -7 -8 -22 -22 -14 -25 13 l-3 26 -17 -30z"/>
<path d="M894 465 c11 -8 25 -15 30 -15 6 0 4 5 -4 10 -10 7 55 10 198 9 116
0 212 -2 212 -4 0 -3 -21 -11 -47 -19 -27 -8 -40 -15 -31 -15 19 -1 98 27 112
40 5 4 -103 8 -240 8 -222 1 -247 -1 -230 -14z"/>
<path d="M1424 456 c-8 -21 2 -45 21 -53 25 -9 36 9 22 36 -15 30 -35 38 -43
17z m33 -21 c8 -22 -6 -33 -17 -15 -13 20 -12 30 0 30 6 0 13 -7 17 -15z"/>
<path d="M948 443 c7 -3 16 -2 19 1 4 3 -2 6 -13 5 -11 0 -14 -3 -6 -6z"/>
<path d="M834 416 c-7 -31 1 -46 26 -46 20 0 36 17 25 28 -3 3 -10 0 -15 -8
-12 -20 -35 2 -26 25 4 13 13 15 32 11 17 -5 23 -3 19 4 -3 5 -17 10 -30 10
-18 0 -26 -7 -31 -24z"/>
<path d="M995 430 c19 -8 83 -14 74 -6 -2 2 -24 6 -49 9 -30 4 -38 3 -25 -3z"/>
<path d="M1382 408 c2 -22 9 -34 21 -36 24 -5 22 23 -4 49 l-20 20 3 -33z m28
-18 c0 -5 -2 -10 -4 -10 -3 0 -8 5 -11 10 -3 6 -1 10 4 10 6 0 11 -4 11 -10z"/>
<path d="M1193 423 c9 -2 23 -2 30 0 6 3 -1 5 -18 5 -16 0 -22 -2 -12 -5z"/>
<path d="M1098 413 c6 -2 18 -2 25 0 6 3 1 5 -13 5 -14 0 -19 -2 -12 -5z"/>
<path d="M1327 414 c-9 -10 4 -34 19 -34 20 0 17 -18 -3 -23 -14 -4 -12 -5 5
-6 27 -1 30 23 5 38 -16 9 -16 12 -3 21 13 8 13 10 -1 10 -9 0 -18 -3 -22 -6z"/>
<path d="M922 387 c-27 -29 -28 -37 -2 -30 11 3 20 0 20 -6 0 -6 4 -11 10 -11
9 0 8 56 -2 65 -3 3 -14 -5 -26 -18z"/>
<path d="M985 369 c-4 -17 -3 -35 2 -40 5 -5 9 9 9 31 2 48 -2 51 -11 9z"/>
<path d="M1037 383 c-14 -13 -7 -25 8 -13 16 14 35 5 35 -16 0 -20 -27 -29
-45 -14 -13 11 -14 10 -9 -3 14 -39 64 -25 64 18 0 27 -36 46 -53 28z"/>
<path d="M1177 383 c-4 -3 -7 -21 -7 -40 0 -23 5 -33 15 -33 8 0 15 5 15 10 0
6 -5 10 -11 10 -8 0 -8 4 0 14 9 11 9 15 -1 19 -10 4 -10 6 0 6 6 1 12 6 12
11 0 11 -13 13 -23 3z"/>
<path d="M1111 343 c0 -21 3 -32 6 -25 3 8 9 10 16 3 9 -6 13 0 14 25 1 28 -2
34 -18 34 -15 0 -19 -7 -18 -37z"/>
<path d="M1260 349 c0 -5 5 -7 10 -4 6 3 10 8 10 11 0 2 -4 4 -10 4 -5 0 -10
-5 -10 -11z"/>
</g>
</svg>
